<mxfile host="app.diagrams.net" modified="2024-01-12T12:44:40.307Z" agent="Mozilla/5.0 (Windows NT 10.0; Win64; x64) AppleWebKit/537.36 (KHTML, like Gecko) Chrome/120.0.0.0 Safari/537.36" etag="yjvDsE_PAkpVpaoLME1o" version="22.1.18" type="github">
  <diagram name="Page-1" id="K_Bx_-tKghzcoAmssN-k">
    <mxGraphModel dx="1434" dy="746" grid="1" gridSize="10" guides="1" tooltips="1" connect="1" arrows="1" fold="1" page="1" pageScale="1" pageWidth="850" pageHeight="1100" math="0" shadow="0">
      <root>
        <mxCell id="0" />
        <mxCell id="1" parent="0" />
        <mxCell id="DX6mClIWoc0_fIdekHX5-1" value="NSSM&lt;br&gt;Non-Sucking Service Manager" style="rounded=1;whiteSpace=wrap;html=1;" vertex="1" parent="1">
          <mxGeometry x="360" y="300" width="200" height="60" as="geometry" />
        </mxCell>
        <mxCell id="DX6mClIWoc0_fIdekHX5-2" value="Executable File Owner" style="ellipse;whiteSpace=wrap;html=1;aspect=fixed;" vertex="1" parent="1">
          <mxGeometry x="420" y="560" width="80" height="80" as="geometry" />
        </mxCell>
        <mxCell id="DX6mClIWoc0_fIdekHX5-3" value="Portable app to install executable file as window service" style="text;html=1;strokeColor=none;fillColor=none;align=center;verticalAlign=middle;whiteSpace=wrap;rounded=0;" vertex="1" parent="1">
          <mxGeometry x="370" y="260" width="180" height="30" as="geometry" />
        </mxCell>
        <mxCell id="DX6mClIWoc0_fIdekHX5-4" value="" style="endArrow=classic;html=1;rounded=0;" edge="1" parent="1" source="DX6mClIWoc0_fIdekHX5-2">
          <mxGeometry width="50" height="50" relative="1" as="geometry">
            <mxPoint x="400" y="410" as="sourcePoint" />
            <mxPoint x="460" y="360" as="targetPoint" />
          </mxGeometry>
        </mxCell>
        <mxCell id="DX6mClIWoc0_fIdekHX5-6" value="" style="shape=image;html=1;verticalAlign=top;verticalLabelPosition=bottom;labelBackgroundColor=#ffffff;imageAspect=0;aspect=fixed;image=https://cdn3.iconfinder.com/data/icons/transformers/ms-dos-batch-file.png" vertex="1" parent="1">
          <mxGeometry x="580" y="555" width="80" height="80" as="geometry" />
        </mxCell>
        <mxCell id="DX6mClIWoc0_fIdekHX5-7" value="Service Configuration [Manual]" style="text;html=1;strokeColor=none;fillColor=none;align=center;verticalAlign=middle;whiteSpace=wrap;rounded=0;" vertex="1" parent="1">
          <mxGeometry x="390" y="490" width="60" height="30" as="geometry" />
        </mxCell>
        <mxCell id="DX6mClIWoc0_fIdekHX5-8" value="Executable File" style="text;html=1;strokeColor=none;fillColor=none;align=center;verticalAlign=middle;whiteSpace=wrap;rounded=0;" vertex="1" parent="1">
          <mxGeometry x="590" y="620" width="60" height="30" as="geometry" />
        </mxCell>
        <mxCell id="DX6mClIWoc0_fIdekHX5-10" value="" style="endArrow=classic;html=1;rounded=0;entryX=1;entryY=0.5;entryDx=0;entryDy=0;exitX=0.5;exitY=0;exitDx=0;exitDy=0;" edge="1" parent="1" source="DX6mClIWoc0_fIdekHX5-6" target="DX6mClIWoc0_fIdekHX5-1">
          <mxGeometry width="50" height="50" relative="1" as="geometry">
            <mxPoint x="620" y="520" as="sourcePoint" />
            <mxPoint x="450" y="360" as="targetPoint" />
            <Array as="points">
              <mxPoint x="620" y="500" />
              <mxPoint x="620" y="330" />
            </Array>
          </mxGeometry>
        </mxCell>
        <mxCell id="DX6mClIWoc0_fIdekHX5-12" value="Windows Service" style="sketch=0;outlineConnect=0;fontColor=#232F3E;gradientColor=none;strokeColor=#232F3E;fillColor=#ffffff;dashed=0;verticalLabelPosition=bottom;verticalAlign=top;align=center;html=1;fontSize=12;fontStyle=0;aspect=fixed;shape=mxgraph.aws4.resourceIcon;resIcon=mxgraph.aws4.maintenance_windows;" vertex="1" parent="1">
          <mxGeometry x="150" y="300" width="60" height="60" as="geometry" />
        </mxCell>
        <mxCell id="DX6mClIWoc0_fIdekHX5-13" value="" style="endArrow=classic;html=1;rounded=0;exitX=0;exitY=0.5;exitDx=0;exitDy=0;" edge="1" parent="1" source="DX6mClIWoc0_fIdekHX5-1" target="DX6mClIWoc0_fIdekHX5-12">
          <mxGeometry width="50" height="50" relative="1" as="geometry">
            <mxPoint x="400" y="410" as="sourcePoint" />
            <mxPoint x="450" y="360" as="targetPoint" />
          </mxGeometry>
        </mxCell>
      </root>
    </mxGraphModel>
  </diagram>
</mxfile>
